<svg height="463pt" viewBox="-72 0 463 463.98945" width="463pt" xmlns="http://www.w3.org/2000/svg"><path d="m165.589844 2.277344 18.046875 20.28125c2.027343 2.273437 5.320312 2.929687 8.0625 1.597656l24.441406-11.832031c1.75-.847657 3.78125-.90625 5.582031-.164063 1.796875.746094 3.191406 2.222656 3.832032 4.0625l8.914062 25.644532c1 2.882812 3.792969 4.75 6.839844 4.570312l27.105468-1.601562c1.941407-.113282 3.839844.605468 5.214844 1.984374 1.378906 1.375 2.097656 3.273438 1.984375 5.214844l-1.601562 27.105469c-.179688 3.046875 1.6875 5.839844 4.570312 6.839844l25.644531 8.914062c1.839844.636719 3.320313 2.03125 4.0625 3.832031.746094 1.800782.6875 3.832032-.164062 5.582032l-11.824219 24.441406c-1.335937 2.742188-.683593 6.039062 1.597657 8.0625l20.28125 18.046875c1.453124 1.296875 2.285156 3.152344 2.285156 5.097656 0 1.945313-.832032 3.800781-2.285156 5.097657l-20.253907 18.085937c-2.28125 2.027344-2.9375 5.328125-1.601562 8.074219l11.824219 24.429687c.851562 1.753907.910156 3.785157.167968 5.582031-.746094 1.800782-2.222656 3.195313-4.0625 3.835938l-25.648437 8.910156c-2.882813 1-4.75 3.796875-4.570313 6.839844l1.601563 27.105469c.109375 1.941406-.613281 3.835937-1.988281 5.210937s-3.269532 2.097656-5.210938 1.988282l-27.144531-1.574219c-3.046875-.179688-5.84375 1.6875-6.839844 4.574219l-8.914063 25.601562c-.636718 1.835938-2.03125 3.316406-3.832031 4.0625-1.800781.742188-3.832031.683594-5.582031-.167969l-24.433594-11.792969c-2.742187-1.328124-6.035156-.675781-8.0625 1.601563l-18.039062 20.277344c-1.296875 1.457031-3.152344 2.289062-5.097656 2.289062-1.945313 0-3.800782-.832031-5.097657-2.289062l-18.046875-20.277344c-2.027344-2.277344-5.320312-2.929687-8.0625-1.601563l-24.441406 11.824219c-1.75.851563-3.78125.910157-5.582031.167969-1.800781-.746094-3.195313-2.222656-3.832031-4.0625l-8.914063-25.601562c-.984375-2.890626-3.773437-4.773438-6.824219-4.605469l-27.101562 1.597656c-1.941406.109375-3.839844-.613281-5.214844-1.988281s-2.097656-3.269532-1.988281-5.210938l1.601562-27.105468c.179688-3.042969-1.6875-5.839844-4.566406-6.839844l-25.691406-8.941406c-1.835938-.640626-3.316407-2.035157-4.0625-3.835938-.742188-1.796875-.683594-3.828125.167969-5.582031l11.824218-24.433594c1.335938-2.742187.679688-6.042969-1.601562-8.070313l-20.277344-18.046874c-1.453125-1.296876-2.285156-3.148438-2.285156-5.097657 0-1.945312.832031-3.800781 2.285156-5.09375l20.277344-18.050781c2.285156-2.023438 2.9375-5.320312 1.601562-8.0625l-11.824218-24.441406c-.851563-1.75-.910157-3.78125-.167969-5.582032.746093-1.800781 2.226562-3.195312 4.0625-3.832031l25.648437-8.914062c2.882813-1 4.75-3.792969 4.570313-6.839844l-1.601563-27.101563c-.113281-1.945312.605469-3.84375 1.984375-5.21875 1.375-1.375 3.273438-2.097656 5.214844-1.984374l27.105469 1.601562c3.046875.179688 5.839844-1.6875 6.839844-4.566406l8.910156-25.648438c.644531-1.839844 2.039062-3.316406 3.835937-4.058594 1.800781-.746093 3.828125-.6875 5.582031.160157l24.472657 11.808593c2.742187 1.332032 6.035156.679688 8.0625-1.597656l18.046875-20.28125c1.296875-1.453125 3.148437-2.285156 5.09375-2.285156 1.941406 0 3.796875.828125 5.09375 2.277344zm0 0" fill="#ff6283"/><path d="m278.21875 234.171875c-54.175781 15.246094-112.363281.046875-152.15625-39.75-39.796875-39.796875-55-97.984375-39.753906-152.160156-1.101563 2.65625-3.757813 4.335937-6.632813 4.183593l-27.105469-1.601562c-1.941406-.113281-3.839843.605469-5.214843 1.984375-1.378907 1.375-2.097657 3.273437-1.984375 5.21875l1.601562 27.101563c.179688 3.046874-1.6875 5.839843-4.570312 6.839843l-25.671875 8.9375c-1.835938.636719-3.316407 2.03125-4.0625 3.832031-.742188 1.800782-.683594 3.832032.167969 5.582032l11.824218 24.441406c1.335938 2.742188.683594 6.039062-1.601562 8.0625l-20.277344 18.050781c-1.453125 1.292969-2.285156 3.148438-2.285156 5.09375 0 1.949219.832031 3.800781 2.285156 5.097657l20.277344 18.054687c2.28125 2.027344 2.9375 5.328125 1.601562 8.074219l-11.824218 24.429687c-.851563 1.753907-.910157 3.785157-.167969 5.582031.746093 1.800782 2.226562 3.195313 4.0625 3.835938l25.648437 8.910156c2.882813 1 4.75 3.796875 4.570313 6.839844l-1.601563 27.105469c-.109375 1.941406.613282 3.835937 1.988282 5.210937s3.269531 2.097656 5.210937 1.988282l27.105469-1.601563c3.046875-.175781 5.84375 1.691406 6.839844 4.578125l8.910156 25.597656c.640625 1.839844 2.035156 3.320313 3.835937 4.0625 1.796875.746094 3.832031.6875 5.582031-.164062l24.472657-11.769532c2.742187-1.328124 6.035156-.675781 8.0625 1.601563l18.046875 20.277344c1.296875 1.457031 3.152344 2.289062 5.097656 2.289062s3.800781-.832031 5.097656-2.289062l18.046875-20.277344c2.027344-2.277344 5.320313-2.929687 8.0625-1.601563l24.441407 11.824219c1.75.851563 3.785156.910157 5.582031.167969 1.800781-.746094 3.195312-2.222656 3.832031-4.0625l8.914062-25.601562c.984376-2.886719 3.769532-4.769532 6.816407-4.605469l27.101562 1.597656c1.941407.109375 3.839844-.613281 5.214844-1.988281s2.097656-3.269532 1.988281-5.210938l-1.601562-27.105468c-.160156-2.894532 1.539062-5.570313 4.222656-6.664063zm0 0" fill="#ee1442"/><path d="m264.492188 159.988281c0 57.4375-46.5625 104-104 104s-104-46.5625-104-104 46.5625-104 104-104 104 46.5625 104 104zm0 0" fill="#ffee80"/><path d="m208.492188 215.988281c-35.851563.0625-69.199219-18.378906-88.207032-48.78125-19.007812-30.398437-20.984375-68.453125-5.234375-100.65625-40.960937 19.871094-64.21875 64.089844-57.390625 109.101563 6.828125 45.011718 42.15625 80.339844 87.171875 87.167968 45.011719 6.828126 89.226563-16.429687 109.101563-57.390624-14.144532 6.933593-29.6875 10.546874-45.441406 10.558593zm0 0" fill="#fd0"/><path d="m232.492188 159.988281c0 39.765625-32.234376 72-72 72-39.765626 0-72-32.234375-72-72s32.234374-72 72-72c39.765624 0 72 32.234375 72 72zm0 0" fill="#fd0"/><path d="m192.492188 207.988281c-27.292969.03125-52.25-15.398437-64.425782-39.828125-12.171875-24.429687-9.464844-53.644531 6.992188-75.417968-28.675782 10.777343-47.382813 38.53125-46.617188 69.15625.769532 30.625 20.84375 57.40625 50.027344 66.734374 29.183594 9.324219 61.070312-.851562 79.457031-25.355468-8.121093 3.101562-16.742187 4.699218-25.433593 4.710937zm0 0" fill="#ffac0d"/><path d="m160.492188 87.988281c-23.066407.003907-44.726563 11.078125-58.230469 29.777344 28.617187-20.832031 68.136719-17.738281 93.164062 7.289063 25.03125 25.027343 28.125 64.546874 7.296875 93.167968 25.285156-18.292968 35.890625-50.796875 26.265625-80.480468-9.625-29.683594-37.289062-49.78125-68.496093-49.753907zm0 0" fill="#ffac0d"/><path d="m258.730469 274.550781-17.4375-1.007812c-3.046875-.179688-5.84375 1.6875-6.839844 4.574219l-8.914063 25.601562c-.636718 1.835938-2.03125 3.316406-3.832031 4.0625-1.800781.742188-3.832031.683594-5.582031-.167969l-24.433594-11.792969c-2.742187-1.328124-6.035156-.675781-8.0625 1.601563l-18.039062 20.277344c-1.296875 1.457031-3.152344 2.289062-5.097656 2.289062-1.945313 0-3.800782-.832031-5.097657-2.289062l-.246093-.269531 51.457031 141.375c1.007812 2.773437 3.484375 4.75 6.414062 5.121093 2.929688.371094 5.820313-.925781 7.488281-3.359375l27.097657-39.472656c1.902343-2.777344 5.355469-4.035156 8.597656-3.136719l46.136719 12.800781c2.835937.789063 5.878906-.074218 7.878906-2.234374 2.003906-2.15625 2.632812-5.253907 1.632812-8.023438zm0 0" fill="#fd0"/><path d="m165.589844 317.699219c-1.296875 1.457031-3.152344 2.289062-5.097656 2.289062-1.945313 0-3.800782-.832031-5.097657-2.289062l-18.046875-20.277344c-2.027344-2.277344-5.320312-2.929687-8.0625-1.601563l-24.441406 11.824219c-1.75.851563-3.78125.910157-5.582031.167969-1.800781-.746094-3.195313-2.222656-3.832031-4.0625l-8.914063-25.601562c-.984375-2.890626-3.773437-4.773438-6.824219-4.605469l-17.421875 1.015625-53.136719 145.941406c-1.011718 2.773438-.386718 5.878906 1.617188 8.046875 2.003906 2.164063 5.050781 3.027344 7.894531 2.234375l46.136719-12.800781c3.242188-.898438 6.695312.359375 8.597656 3.136719l27.113282 39.449218c1.667968 2.433594 4.558593 3.730469 7.488281 3.359375 2.929687-.371093 5.40625-2.347656 6.414062-5.121093l51.457031-141.375zm0 0" fill="#fd0"/><path d="m270.46875 306.789062-11.738281-32.238281-17.4375-1.007812c-3.046875-.179688-5.84375 1.6875-6.839844 4.574219l-8.914063 25.601562c-.636718 1.835938-2.03125 3.316406-3.832031 4.0625-1.800781.742188-3.832031.683594-5.582031-.167969l-24.433594-11.792969c-2.742187-1.328124-6.035156-.675781-8.0625 1.601563l-18.039062 20.277344c-1.296875 1.457031-3.152344 2.289062-5.097656 2.289062-1.945313 0-3.800782-.832031-5.097657-2.289062l-.246093-.269531 11.367187 31.199218 17.121094-19.238281c2.027343-2.277344 5.320312-2.933594 8.0625-1.601563l24.441406 11.824219c1.75.851563 3.785156.910157 5.582031.167969 1.800782-.746094 3.195313-2.226562 3.832032-4.0625l8.914062-25.601562c.996094-2.878907 3.78125-4.746094 6.824219-4.574219l27.101562 1.597656c.707031-.003906 1.40625-.125 2.074219-.351563zm0 0" fill="#ffac0d"/><path d="m165.589844 317.699219c-1.296875 1.457031-3.152344 2.289062-5.097656 2.289062-1.945313 0-3.800782-.832031-5.097657-2.289062l-18.046875-20.277344c-2.027344-2.277344-5.320312-2.929687-8.0625-1.601563l-24.441406 11.824219c-1.75.851563-3.78125.910157-5.582031.167969-1.800781-.746094-3.195313-2.222656-3.832031-4.0625l-8.914063-25.601562c-.984375-2.890626-3.773437-4.773438-6.824219-4.605469l-17.421875 1.015625-11.738281 32.238281c.664062.21875 1.359375.328125 2.058594.328125l27.101562-1.601562c3.046875-.175782 5.84375 1.691406 6.839844 4.578124l8.914062 25.597657c.636719 1.839843 2.03125 3.320312 3.832032 4.066406 1.800781.742187 3.832031.683594 5.582031-.167969l24.433594-11.777344c2.742187-1.328124 6.035156-.675781 8.0625 1.601563l17.121093 19.238281 11.367188-31.199218zm0 0" fill="#ffac0d"/><path d="m184.492188 183.988281h-16v-56c0-3.234375-1.949219-6.152343-4.9375-7.386719-2.988282-1.238281-6.429688-.554687-8.71875 1.730469l-16 16c-3.03125 3.140625-2.988282 8.128907.097656 11.214844 3.085937 3.085937 8.074218 3.128906 11.214844.097656l2.34375-2.34375v36.6875h-16c-4.417969 0-8 3.582031-8 8s3.582031 8 8 8h48c4.417968 0 8-3.582031 8-8s-3.582032-8-8-8zm0 0" fill="#ee1442"/><path d="m138.933594 183.988281h-2.441406c-4.417969 0-8 3.582031-8 8s3.582031 8 8 8h23.113281c-7.808594-4.027343-14.816407-9.453125-20.671875-16zm0 0" fill="#a10022"/></svg>